# xmcd CD database file
#
# Track frame offsets:
#	150
#	22936
#	45273
#	57659
#	76786
#	99520
#	121492
#	153071
#	180596
#	209751
#	226538
#	247112
#	288736
#	312260
#
# Disc length: 4514 seconds
#
# Revision: 0
# Processed by: cddbd v1.5.2PL0 Copyright (c) Steve Scherf et al.
# Submitted via: CDex 1.75
#
DISCID=b311a00e
DTITLE=Bill Evans Trio - Complete 1956-1962 Studio Albums
DYEAR=1962
DGENRE=Jazz
TTITLE0=Polka Dots and Moonbeams
TTITLE1=I Should Care
TTITLE2=I Fall in Love Too Easily
TTITLE3=Ev'rything I Love
TTITLE4=In Love in Vain
TTITLE5=Stairway to the Stars
TTITLE6=In Your Own Sweet Way
TTITLE7=It Might as Well be Spring
TTITLE8=The Washington Twist
TTITLE9=Danny Boy
TTITLE10=Let's Go Back to the Waltz
TTITLE11=With a Song in my Heart
TTITLE12=Goodbye
TTITLE13=I Believe in You
EXTD=YEAR: 1962
EXTT0=
EXTT1=
EXTT2=
EXTT3=
EXTT4=
EXTT5=
EXTT6=
EXTT7=
EXTT8=
EXTT9=
EXTT10=
EXTT11=
EXTT12=
EXTT13=
PLAYORDER=
